<?xml version="1.0" encoding="UTF-8" standalone="no"?>
<svg width="50px" height="108px" viewBox="0 0 50 108" version="1.1" xmlns="http://www.w3.org/2000/svg" xmlns:xlink="http://www.w3.org/1999/xlink">
    <!-- Generator: Sketch 3.8.3 (29802) - http://www.bohemiancoding.com/sketch -->
    <title>Group 4</title>
    <desc>Created with Sketch.</desc>
    <defs>
        <rect id="path-1" x="5" y="4" width="48" height="64" rx="3"></rect>
        <mask id="mask-2" maskContentUnits="userSpaceOnUse" maskUnits="objectBoundingBox" x="0" y="0" width="48" height="64" fill="white">
            <use xlink:href="#path-1"></use>
        </mask>
        <linearGradient x1="50%" y1="0%" x2="50%" y2="100%" id="linearGradient-3">
            <stop stop-color="#F8F7F5" offset="0%"></stop>
            <stop stop-color="#AEC1D4" offset="100%"></stop>
        </linearGradient>
        <polygon id="path-4" points="39.9697393 39.8430875 58.7255151 20.4209111 39.3033407 1.66513565"></polygon>
        <filter x="-50%" y="-50%" width="200%" height="200%" filterUnits="objectBoundingBox" id="filter-5">
            <feMorphology radius="1" operator="dilate" in="SourceAlpha" result="shadowSpreadOuter1"></feMorphology>
            <feOffset dx="0" dy="0" in="shadowSpreadOuter1" result="shadowOffsetOuter1"></feOffset>
            <feGaussianBlur stdDeviation="3.5" in="shadowOffsetOuter1" result="shadowBlurOuter1"></feGaussianBlur>
            <feComposite in="shadowBlurOuter1" in2="SourceAlpha" operator="out" result="shadowBlurOuter1"></feComposite>
            <feColorMatrix values="0 0 0 0 0   0 0 0 0 0   0 0 0 0 0  0 0 0 0.598222373 0" type="matrix" in="shadowBlurOuter1"></feColorMatrix>
        </filter>
        <polygon id="path-6" points="12.9747628 54.5939079 33.8145136 33.0137135 12.0189776 12.3969551"></polygon>
        <filter x="-50%" y="-50%" width="200%" height="200%" filterUnits="objectBoundingBox" id="filter-7">
            <feMorphology radius="1" operator="dilate" in="SourceAlpha" result="shadowSpreadOuter1"></feMorphology>
            <feOffset dx="0" dy="0" in="shadowSpreadOuter1" result="shadowOffsetOuter1"></feOffset>
            <feGaussianBlur stdDeviation="3.5" in="shadowOffsetOuter1" result="shadowBlurOuter1"></feGaussianBlur>
            <feComposite in="shadowBlurOuter1" in2="SourceAlpha" operator="out" result="shadowBlurOuter1"></feComposite>
            <feColorMatrix values="0 0 0 0 0   0 0 0 0 0   0 0 0 0 0  0 0 0 0.598222373 0" type="matrix" in="shadowBlurOuter1"></feColorMatrix>
        </filter>
    </defs>
    <g id="CI-stuff" stroke="none" stroke-width="1" fill="none" fill-rule="evenodd">
        <g id="Feedbase---alternative-1" transform="translate(-369.000000, -202.000000)">
            <g id="Group-4" transform="translate(365.000000, 198.000000)">
                <path d="M5.45996094,86.8847656 L5.45361328,86.8847656 C5.24625547,86.8847656 5.07063874,86.9588209 4.92675781,87.1069336 C4.77864509,87.2508145 4.70458984,87.4285471 4.70458984,87.6401367 L4.70458984,95.2509766 C4.70458984,95.4583344 4.77864509,95.6339511 4.92675781,95.777832 C5.07063874,95.9259448 5.24625547,96 5.45361328,96 C5.66097109,96 5.83870369,95.9259448 5.98681641,95.777832 C6.13492913,95.6339511 6.20898438,95.4583344 6.20898438,95.2509766 L6.20898438,92.1914062 L8.9765625,92.1914062 C9.18392031,92.1914062 9.36165291,92.1194669 9.50976562,91.9755859 C9.65787834,91.8274732 9.73193359,91.6497406 9.73193359,91.4423828 C9.73193359,91.235025 9.65787834,91.0572924 9.50976562,90.9091797 C9.36165291,90.7652988 9.18392031,90.6933594 8.9765625,90.6933594 L6.20898438,90.6933594 L6.20898438,88.3891602 L10.0429688,88.4018555 L10.0493164,88.4018555 C10.2566742,88.4018555 10.4322909,88.3278002 10.5761719,88.1796875 C10.7242846,88.0358066 10.7983398,87.8601898 10.7983398,87.652832 C10.7983398,87.4454742 10.7264005,87.2677416 10.5825195,87.1196289 C10.4344068,86.9715162 10.2566742,86.8974609 10.0493164,86.8974609 L5.45996094,86.8847656 Z M20.0532227,94.4956055 L20.0532227,92.1914062 L22.8208008,92.1914062 C23.0281586,92.1914062 23.2058912,92.1194669 23.3540039,91.9755859 C23.5021166,91.8274732 23.5761719,91.6497406 23.5761719,91.4423828 C23.5761719,91.235025 23.5021166,91.0572924 23.3540039,90.9091797 C23.2058912,90.7652988 23.0281586,90.6933594 22.8208008,90.6933594 L20.0532227,90.6933594 L20.0532227,88.3891602 L23.887207,88.4018555 L23.8935547,88.4018555 C24.1009125,88.4018555 24.2765292,88.3278002 24.4204102,88.1796875 C24.5685229,88.0358066 24.6425781,87.8601898 24.6425781,87.652832 C24.6425781,87.4454742 24.5706387,87.2677416 24.4267578,87.1196289 C24.2786451,86.9715162 24.1009125,86.8974609 23.8935547,86.8974609 L19.3041992,86.8847656 L19.2978516,86.8847656 C19.0904938,86.8847656 18.914877,86.9588209 18.7709961,87.1069336 C18.6228834,87.2508145 18.5488281,87.4285471 18.5488281,87.6401367 L18.5488281,95.2509766 C18.5488281,95.4583344 18.6228834,95.6339511 18.7709961,95.777832 C18.914877,95.9259448 19.0904938,96 19.2978516,96 L23.8935547,96 C24.1009125,96 24.2765292,95.9259448 24.4204102,95.777832 C24.5685229,95.6339511 24.6425781,95.4583344 24.6425781,95.2509766 C24.6425781,95.0436188 24.5685229,94.8658862 24.4204102,94.7177734 C24.2765292,94.5696607 24.1009125,94.4956055 23.8935547,94.4956055 L20.0532227,94.4956055 Z M34.0625,94.4956055 L34.0625,92.1914062 L36.8300781,92.1914062 C37.0374359,92.1914062 37.2151685,92.1194669 37.3632812,91.9755859 C37.511394,91.8274732 37.5854492,91.6497406 37.5854492,91.4423828 C37.5854492,91.235025 37.511394,91.0572924 37.3632812,90.9091797 C37.2151685,90.7652988 37.0374359,90.6933594 36.8300781,90.6933594 L34.0625,90.6933594 L34.0625,88.3891602 L37.8964844,88.4018555 L37.902832,88.4018555 C38.1101898,88.4018555 38.2858066,88.3278002 38.4296875,88.1796875 C38.5778002,88.0358066 38.6518555,87.8601898 38.6518555,87.652832 C38.6518555,87.4454742 38.5799161,87.2677416 38.4360352,87.1196289 C38.2879224,86.9715162 38.1101898,86.8974609 37.902832,86.8974609 L33.3134766,86.8847656 L33.3071289,86.8847656 C33.0997711,86.8847656 32.9241544,86.9588209 32.7802734,87.1069336 C32.6321607,87.2508145 32.5581055,87.4285471 32.5581055,87.6401367 L32.5581055,95.2509766 C32.5581055,95.4583344 32.6321607,95.6339511 32.7802734,95.777832 C32.9241544,95.9259448 33.0997711,96 33.3071289,96 L37.902832,96 C38.1101898,96 38.2858066,95.9259448 38.4296875,95.777832 C38.5778002,95.6339511 38.6518555,95.4583344 38.6518555,95.2509766 C38.6518555,95.0436188 38.5778002,94.8658862 38.4296875,94.7177734 C38.2858066,94.5696607 38.1101898,94.4956055 37.902832,94.4956055 L34.0625,94.4956055 Z M48.0717773,88.4018555 L49.2397461,88.4018555 C50.0776409,88.4018555 50.792803,88.7001923 51.3852539,89.296875 C51.9777048,89.8893259 52.2739258,90.6023721 52.2739258,91.4360352 C52.2739258,92.27393 51.9777048,92.9890921 51.3852539,93.581543 C50.792803,94.1739938 50.075525,94.4702148 49.2333984,94.4702148 L48.0717773,94.4892578 L48.0717773,88.4018555 Z M47.3291016,96 L49.2397461,95.9746094 C50.4923565,95.9746094 51.5629838,95.5302779 52.4516602,94.6416016 C53.3361047,93.757157 53.7783203,92.6886456 53.7783203,91.4360352 C53.7783203,90.1876565 53.3361047,89.1191451 52.4516602,88.2304688 C51.5629838,87.3460242 50.4923565,86.9038086 49.2397461,86.9038086 L47.3164062,86.9038086 C47.1090484,86.9038086 46.9334317,86.975748 46.7895508,87.1196289 C46.6414381,87.2677416 46.5673828,87.4454742 46.5673828,87.652832 L46.5673828,95.2509766 C46.5673828,95.4583344 46.6414381,95.636067 46.7895508,95.7841797 C46.9376635,95.9280606 47.1132802,96 47.3164062,96 L47.3291016,96 Z M5.43457031,107.842285 L7.97998047,107.842285 L8.10693359,107.842285 L8.15771484,107.842285 C8.69092063,107.842285 9.14159972,108.005207 9.50976562,108.331055 C9.87793153,108.652671 10.0620117,109.050453 10.0620117,109.524414 C10.0620117,109.998375 9.87581566,110.402505 9.50341797,110.736816 C9.12678848,111.071128 8.67399353,111.238281 8.14501953,111.238281 L5.43457031,111.238281 L5.43457031,107.842285 Z M5.43457031,103.665527 L7.97998047,103.652832 C8.51741805,103.652832 8.970213,103.813638 9.33837891,104.135254 C9.70654481,104.461102 9.890625,104.858884 9.890625,105.328613 C9.890625,105.811038 9.70442895,106.223631 9.33203125,106.566406 C8.95963355,106.909181 8.50895447,107.080566 7.97998047,107.080566 L5.43457031,107.086914 L5.43457031,103.665527 Z M8.14501953,112 C8.88558313,112 9.51611068,111.756676 10.0366211,111.27002 C10.5613633,110.787595 10.8237305,110.205733 10.8237305,109.524414 C10.8237305,109.071612 10.7031262,108.654787 10.4619141,108.273926 C10.2249337,107.901528 9.90120648,107.609539 9.49072266,107.397949 C9.85042498,107.169432 10.1318349,106.875327 10.3349609,106.515625 C10.5465505,106.147459 10.6523438,105.751792 10.6523438,105.328613 C10.6523438,104.647295 10.3942083,104.069664 9.87792969,103.595703 C9.36165106,103.125974 8.72900765,102.891113 7.97998047,102.891113 L5.05371094,102.903809 C4.94791614,102.903809 4.85693397,102.941894 4.78076172,103.018066 C4.70882125,103.090007 4.67285156,103.178873 4.67285156,103.284668 L4.67285156,111.619141 C4.67285156,111.724935 4.71093712,111.813802 4.78710938,111.885742 C4.85904984,111.961914 4.94791614,112 5.05371094,112 L8.14501953,112 Z M20.3261719,109.111816 L22.3320312,104.274902 L24.3378906,109.111816 L20.3261719,109.111816 Z M18.8789062,112 C19.0481779,112 19.1645505,111.921713 19.2280273,111.765137 L20.0151367,109.873535 L24.6489258,109.873535 L25.4360352,111.765137 C25.499512,111.921713 25.6158846,112 25.7851562,112 C25.8359378,112 25.8846026,111.989421 25.9311523,111.968262 C26.0284836,111.930176 26.0961912,111.862468 26.1342773,111.765137 C26.1765953,111.667806 26.1765953,111.570476 26.1342773,111.473145 L25.2519531,109.34668 L25.2519531,109.340332 L22.6811523,103.138672 C22.6726888,103.117513 22.6621094,103.094238 22.6494141,103.068848 C22.6494141,103.073079 22.6409506,103.064616 22.6240234,103.043457 C22.6113281,103.02653 22.6028646,103.015951 22.5986328,103.011719 C22.594401,103.011719 22.5838217,103.003255 22.5668945,102.986328 C22.5499674,102.973633 22.5415039,102.967285 22.5415039,102.967285 C22.499186,102.937663 22.452637,102.91862 22.4018555,102.910156 C22.4060873,102.910156 22.3955079,102.910156 22.3701172,102.910156 C22.3489582,102.905924 22.336263,102.903809 22.3320312,102.903809 C22.3277995,102.903809 22.3129884,102.905924 22.2875977,102.910156 L22.2558594,102.910156 C22.2093097,102.91862 22.1648765,102.937663 22.1225586,102.967285 C22.1267904,102.963053 22.1183269,102.969401 22.097168,102.986328 C22.0802408,102.999024 22.0696615,103.007487 22.0654297,103.011719 C22.0611979,103.015951 22.0527344,103.02653 22.0400391,103.043457 L22.0146484,103.068848 C22.0019531,103.094238 21.9913737,103.117513 21.9829102,103.138672 L19.4121094,109.340332 L19.4121094,109.34668 L18.5297852,111.473145 C18.4874672,111.570476 18.4874672,111.667806 18.5297852,111.765137 C18.5678713,111.862468 18.6355789,111.930176 18.7329102,111.968262 C18.7794599,111.989421 18.8281247,112 18.8789062,112 L18.8789062,112 Z M34.8051758,111.587402 C34.1746388,111.253091 33.7768563,110.770674 33.6118164,110.140137 C33.5864257,110.042806 33.5991208,109.947592 33.6499023,109.854492 C33.7049156,109.765625 33.7832026,109.708496 33.8847656,109.683105 C33.9820968,109.657715 34.0773107,109.67041 34.1704102,109.721191 C34.2592778,109.776205 34.3164061,109.852376 34.3417969,109.949707 C34.4560553,110.389813 34.7522763,110.726236 35.2304688,110.958984 C35.6282572,111.149415 36.083168,111.244629 36.5952148,111.244629 C37.1495796,111.244629 37.6256491,111.066896 38.0234375,110.711426 C38.4212259,110.355955 38.6328124,109.922203 38.6582031,109.410156 C38.6751303,109.04199 38.5481784,108.716147 38.2773438,108.432617 C37.9091778,108.039061 37.3230834,107.835938 36.519043,107.823242 C36.4132482,107.823242 36.3243819,107.785157 36.2524414,107.708984 C36.1805009,107.632812 36.1445312,107.543946 36.1445312,107.442383 C36.148763,107.336588 36.1889645,107.247722 36.2651367,107.175781 C36.3370772,107.103841 36.4259435,107.067871 36.5317383,107.067871 C37.5473684,107.084798 38.3133112,107.368324 38.8295898,107.918457 C39.2443055,108.354332 39.4368491,108.862139 39.4072266,109.441895 C39.377604,110.157067 39.0898465,110.762205 38.5439453,111.257324 C38.0022759,111.752444 37.3527056,112 36.5952148,112 C35.9265917,112 35.329918,111.862469 34.8051758,111.587402 L34.8051758,111.587402 Z M36.480957,107.823242 C35.465327,107.810547 34.6993841,107.529137 34.1831055,106.979004 C33.7683899,106.538898 33.5737303,106.028974 33.5991211,105.449219 C33.6329754,104.734046 33.9228488,104.128909 34.46875,103.633789 C35.0104194,103.138669 35.6599897,102.891113 36.4174805,102.891113 C37.0861036,102.891113 37.6827773,103.03076 38.2075195,103.310059 C38.8380565,103.640138 39.235839,104.12044 39.4008789,104.750977 C39.4262697,104.85254 39.4135745,104.947753 39.362793,105.036621 C39.3077797,105.125489 39.2294927,105.182617 39.1279297,105.208008 C39.0263667,105.23763 38.9311528,105.224935 38.8422852,105.169922 C38.7534175,105.11914 38.6962892,105.042969 38.6708984,104.941406 C38.5566401,104.5013 38.2604191,104.166993 37.7822266,103.938477 C37.3844381,103.743814 36.9295273,103.646484 36.4174805,103.646484 C35.8631157,103.646484 35.3870463,103.824217 34.9892578,104.179688 C34.5914694,104.535158 34.3798829,104.971026 34.3544922,105.487305 C34.337565,105.851239 34.4645169,106.174966 34.7353516,106.458496 C35.1035175,106.852053 35.6896119,107.055176 36.4936523,107.067871 C36.5994471,107.072103 36.6883134,107.110188 36.7602539,107.182129 C36.8321944,107.258301 36.8681641,107.349283 36.8681641,107.455078 C36.8639323,107.556641 36.8258467,107.643392 36.7539062,107.715332 C36.677734,107.787272 36.5888677,107.823242 36.4873047,107.823242 L36.480957,107.823242 Z M52.9467773,112 C53.0525721,112 53.1414384,111.961914 53.2133789,111.885742 C53.2895512,111.813802 53.3276367,111.724935 53.3276367,111.619141 C53.3276367,111.513346 53.2895512,111.42448 53.2133789,111.352539 C53.1414384,111.276367 53.0525721,111.238281 52.9467773,111.238281 L48.2875977,111.238281 L48.2875977,107.823242 L51.7724609,107.823242 C51.8782557,107.823242 51.967122,107.785157 52.0390625,107.708984 C52.1152348,107.637044 52.1533203,107.548178 52.1533203,107.442383 C52.1533203,107.336588 52.1152348,107.247722 52.0390625,107.175781 C51.967122,107.099609 51.8782557,107.061523 51.7724609,107.061523 L48.2875977,107.061523 L48.2875977,103.646484 L52.9467773,103.65918 C53.0525721,103.65918 53.1414384,103.62321 53.2133789,103.55127 C53.2895512,103.475097 53.3276367,103.384115 53.3276367,103.27832 C53.3276367,103.176757 53.2895512,103.087891 53.2133789,103.011719 C53.1414384,102.935546 53.0525721,102.897461 52.9467773,102.897461 L47.9067383,102.884766 C47.8051753,102.880534 47.716309,102.918619 47.6401367,102.999023 C47.5639645,103.070964 47.5258789,103.15983 47.5258789,103.265625 L47.5258789,111.619141 C47.5258789,111.724935 47.5639645,111.813802 47.6401367,111.885742 C47.7120772,111.961914 47.8009435,112 47.9067383,112 L52.9467773,112 Z" id="FEED" fill="#EFF1F3"></path>
                <use id="Rectangle-11" stroke="#6660A0" mask="url(#mask-2)" stroke-width="4" fill="#403888" xlink:href="#path-1"></use>
                <g id="Group-7" transform="translate(28.000000, 35.000000) rotate(-270.000000) translate(-28.000000, -35.000000) translate(-7.000000, 7.000000)">
                    <g id="Group-6">
                        <g id="Group-5">
                            <g id="Path-20619" transform="translate(49.014428, 20.754112) scale(-1, 1) rotate(-134.000000) translate(-49.014428, -20.754112) ">
                                <use fill="black" fill-opacity="1" filter="url(#filter-5)" xlink:href="#path-4"></use>
                                <use stroke="#6660A0" stroke-width="2" stroke-linecap="round" stroke-linejoin="round" fill="url(#linearGradient-3)" fill-rule="evenodd" xlink:href="#path-4"></use>
                            </g>
                            <g id="Path-20619" transform="translate(22.916746, 33.495432) scale(1, -1) rotate(-134.000000) translate(-22.916746, -33.495432) ">
                                <use fill="black" fill-opacity="1" filter="url(#filter-7)" xlink:href="#path-6"></use>
                                <use stroke="#6660A0" stroke-width="2" stroke-linecap="round" stroke-linejoin="round" fill="url(#linearGradient-3)" fill-rule="evenodd" xlink:href="#path-6"></use>
                            </g>
                        </g>
                    </g>
                </g>
            </g>
        </g>
    </g>
</svg>